# AST/ASF file generated using VICON BodyLanguage
# -----------------------------------------------
:version 1.10
:name VICON
:units
  mass 1.0
  length 0.45
  angle deg
:documentation
   .ast/.asf automatically generated from VICON data using
   VICON BodyBuilder and BodyLanguage model FoxedUp or BRILLIANT.MOD
:root
   order TX TY TZ RX RY RZ
   axis XYZ
   position 0 0 0  
   orientation 0 0 0 
:bonedata
  begin
     id 1 
     name lhipjoint
     direction 0.440178 -0.822639 0.359871 
     length 2.53113 
     axis 0 0 0  XYZ
  end
  begin
     id 2 
     name lfemur
     direction 0.34202 -0.939693 0  
     length 7.88132  
     axis 0 0 20  XYZ
    dof rx ry rz
    limits (-160.0 20.0)
           (-70.0 70.0)
           (-60.0 70.0)
  end
  begin
     id 3 
     name ltibia
     direction 0.34202 -0.939693 0   
     length 8.43783   
     axis 0 0 20   XYZ
    dof rx
    limits (-10.0 170.0)
  end
  begin
     id 4 
     name lfoot
     direction 0.0886351 -0.243523 0.965837   
     length 2.63414   
     axis -90 7.62852e-016 20   XYZ
    dof rx rz
    limits (-45.0 90.0)
           (-70.0 20.0)
  end
  begin
     id 5 
     name ltoes
     direction 1.53703e-011 -4.21717e-011 1   
     length 1.31427   
     axis -90 7.62852e-016 20   XYZ
    dof rx
    limits (-90.0 20.0)
  end
  begin
     id 6 
     name rhipjoint
     direction -0.399779 -0.839773 0.367367   
     length 2.47948  
     axis 0 0 0  XYZ 
  end
  begin
     id 7 
     name rfemur
     direction -0.34202 -0.939693 0   
     length 7.74806   
     axis 0 0 -20   XYZ
    dof rx ry rz
    limits (-160.0 20.0)
           (-70.0 70.0)
           (-70.0 60.0)
  end
  begin
     id 8 
     name rtibia
     direction -0.34202 -0.939693 0   
     length 8.74432   
     axis 0 0 -20   XYZ
    dof rx
    limits (-10.0 170.0)
 end
 begin
     id 9 
     name rfoot
     direction -0.108514 -0.298139 0.948334   
     length 2.66102  
     axis -90 -7.62852e-016 -20   XYZ
    dof rx rz
    limits (-45.0 90.0)
           (-20.0 70.0)
  end
  begin
     id 10 
     name rtoes
     direction -1.53392e-011 -4.22077e-011 1   
     length 1.31983   
     axis -90 -7.62852e-016 -20   XYZ
    dof rx
    limits (-90.0 20.0)
  end
  begin
     id 11 
     name lowerback
     direction 0.0113257 0.999866 0.0118602   
     length 2.58694   
     axis 0 0 0   XYZ
    dof rx ry rz
    limits (-20.0 45.0)
           (-30.0 30.0)
           (-30.0 30.0)
  end
  begin
     id 12 
     name upperback
     direction -0.0164747 0.995193 -0.0965375   
     length 2.52368   
     axis 0 0 0   XYZ
    dof rx ry rz
    limits (-20.0 45.0)
           (-30.0 30.0)
           (-30.0 30.0)
  end
  begin
     id 13 
     name thorax
     direction -0.0194301 0.99433 -0.104552   
     length 2.56099   
     axis 0 0 0   XYZ
    dof rx ry rz
    limits (-20.0 45.0)
           (-30.0 30.0)
           (-30.0 30.0)
  end
  begin
     id 14 
     name lowerneck
     direction 0.0148543 0.995587 -0.092657   
     length 1.71582   
     axis 0 0 0   XYZ
    dof rx ry rz
    limits (-20.0 45.0)
           (-30.0 30.0)
           (-30.0 30.0)
  end
  begin
     id 15 
     name upperneck
     direction -0.0135467 0.993656 -0.111639   
     length 1.68937   
     axis 0 0 0   XYZ
    dof rx ry rz
    limits (-20.0 45.0)
           (-30.0 30.0)
           (-30.0 30.0)
  end
  begin
     id 16
     name head
     direction -0.00615349 0.999547 -0.029448  
     length 1.7462  
     axis 0 0 0   XYZ
    dof rx ry rz
    limits (-20.0 45.0)
           (-30.0 30.0)
           (-30.0 30.0)
  end
  begin
     id 17 
     name lclavicle
     direction 0.988267 0.149885 0.0293713  
     length 4.47222  
     axis 0 0 0   XYZ
    dof ry rz
    limits (-20.0 10.0)
           (0.0 20.0)
  end
  begin
     id 18 
     name lhumerus
     direction 1 -4.48986e-011 -1.14833e-027   
     length 5.37148   
     axis 180 -30 -90   XYZ
    dof rx ry rz
    limits (-60.0 90.0)
           (-90.0 90.0)
           (-90.0 90.0)
  end
  begin
     id 19
     name lradius
     direction 0.999998 0.00170963 -0.000987055   
     length 3.94212   
     axis 180 -30 -90   XYZ
    dof rx
    limits (-10.0 170.0)
  end
  begin
     id 20
     name lwrist
     direction 0.999998 7.53149e-005 -0.00194706   
     length 1.97106   
     axis 4.65056e-015 90 90   XYZ
    dof ry
    limits (-180.0 0.0)
 end
  begin
     id 21 
     name lhand
     direction 1 -4.48973e-011 -1.31746e-026   
     length 1.17917   
     axis 8.4065e-015 90 90   XYZ
    dof rx rz
    limits (-90.0 90.0)
           (-45.0 45.0)
  end
  begin
     id 22 
     name lfingers
     direction 1 -4.49107e-011 -2.63492e-026   
     length 0.950679   
     axis 1.6813e-014 90 90   XYZ
    dof rx
    limits (0.0 90.0)
  end
  begin
     id 23
     name lthumb
     direction 0.707107 -6.35048e-011 0.707107   
     length 1.36499   
     axis -90 45 2.85299e-015   XYZ
    dof rx rz
    limits (-45.0 45.0)
           (-45.0 45.0)
  end
  begin
     id 24 
     name rclavicle
     direction -0.996699 0.0642895 -0.0495725   
     length 4.62611  
     axis 0 0 0   XYZ 
    dof ry rz
    limits (-10.0 20.0)
           (-20.0 0.0)
  end
  begin
     id 25 
     name rhumerus
     direction -1 -4.48919e-011 -2.41059e-027  
     length 5.4981   
     axis 180 30 90   XYZ
    dof rx ry rz
    limits (-90.0 60.0)
           (-90.0 90.0)
           (-90.0 90.0)
  end
  begin
     id 26 
     name rradius
     direction -0.999999 0.00118101 -0.000681858   
     length 3.48381   
     axis 180 30 90   XYZ
    dof rx
    limits (-10.0 170.0)
  end
  begin
     id 27 
     name rwrist
     direction -0.999999 0.000321823 -0.00132288   
     length 1.7419   
     axis 4.65056e-015 -90 -90   XYZ
    dof ry
    limits (-180.0 0.0)
  end
  begin
     id 28
     name rhand
     direction -1 -4.49022e-011 -1.31746e-026   
     length 1.34932   
     axis 8.4065e-015 -90 -90   XYZ
    dof rx rz
    limits (-90.0 90.0)
           (-45.0 45.0)
  end
  begin
     id 29
     name rfingers
     direction -1 -4.49178e-011 -2.63492e-026   
     length 1.08785   
     axis 1.6813e-014 -90 -90   XYZ
    dof rx
    limits (0.0 90.0)
  end
  begin
     id 30
     name rthumb
     direction -0.707107 -6.34713e-011 0.707107   
     length 1.56195   
     axis -90 -45 -2.85299e-015   XYZ
    dof rx rz
    limits (-45.0 45.0)
           (-45.0 45.0)
  end
:hierarchy
  begin
    root lhipjoint rhipjoint lowerback
    lhipjoint lfemur
    lfemur ltibia
    ltibia lfoot
    lfoot ltoes
    rhipjoint rfemur
    rfemur rtibia
    rtibia rfoot
    rfoot rtoes
    lowerback upperback
    upperback thorax
    thorax lowerneck lclavicle rclavicle
    lowerneck upperneck
    upperneck head
    lclavicle lhumerus
    lhumerus lradius
    lradius lwrist
    lwrist lhand lthumb
    lhand lfingers
    rclavicle rhumerus
    rhumerus rradius
    rradius rwrist
    rwrist rhand rthumb
    rhand rfingers
  end

#!OML:ASF X:\für Bonn\!DataBase\2005_08_10_Bjorn_Final\c3d\bjorn.ASF
:FULLY-SPECIFIED
:DEGREES
16
root 0.108462 19.4133 4.3239 -169.615 -1.24491 176.125
lowerback -4.3508 1.25227 -1.68974
upperback 11.1706 0.847602 -0.23748
thorax 14.6803 -0.207994 0.708372
lowerneck -0.804014 -4.0607 1.02614
upperneck 10.7586 -6.05239 0.774345
head 3.61197 -3.0949 -0.138072
rclavicle 1.17283e-014 -7.95139e-016
rhumerus -1046.47 -42.0566 975.511
rradius 3.49234
rwrist 41.7249
rhand -25.1092 6.14828
rfingers 7.12502
rthumb 1.40614 -23.8268
lclavicle 1.17283e-014 -7.95139e-016
lhumerus 36.6748 27.8801 110.605
lradius 5.1253
lwrist -67.1078
lhand -20.2337 7.07764
lfingers 7.12502
lthumb 6.1142 36.9694
rfemur -25.3436 -15.0395 12.7868
rtibia 29.7302
rfoot -11.7006 11.0899
rtoes -15.7026
lfemur -23.1912 7.72797 -22.2459
ltibia 26.3311
lfoot -6.18789 -13.6571
ltoes 1.80549
17
root 0.11067 19.4161 4.33628 -169.693 -1.36199 176.087
lowerback -4.36046 1.21475 -1.74613
upperback 11.1255 0.814011 -0.243808
thorax 14.6317 -0.224943 0.728598
lowerneck -0.897677 -4.06171 0.87799
upperneck 10.9172 -6.06211 0.779918
head 3.69092 -3.10611 -0.117128
rclavicle 1.39149e-015 8.74653e-015
rhumerus -1044.77 -39.3036 975.415
rradius 3.72228
rwrist 41.9109
rhand -24.728 6.68871
rfingers 7.12502
rthumb 1.77428 -23.2837
lclavicle 1.39149e-015 8.74653e-015
lhumerus 37.9542 25.0124 110.026
lradius 5.70815
lwrist -66.8533
lhand -20.4489 6.26054
lfingers 7.12502
lthumb 5.90645 36.1582
rfemur -25.2434 -15.0677 12.733
rtibia 29.6924
rfoot -11.669 11.0117
rtoes -15.8088
lfemur -23.1238 7.90195 -22.3058
ltibia 26.2761
lfoot -6.05131 -13.9345
ltoes 1.9246
18
root 0.112315 19.4176 4.34548 -169.791 -1.47722 176.065
lowerback -4.38773 1.1951 -1.75491
upperback 11.0664 0.806201 -0.272375
thorax 14.5777 -0.220933 0.702522
lowerneck -0.887345 -4.06774 0.776079
upperneck 11.0486 -6.08486 0.819251
head 3.74034 -3.12284 -0.0901256
rclavicle 9.54166e-015 -8.34896e-015
rhumerus -1043.15 -36.6684 975.562
rradius 3.97984
rwrist 42.1481
rhand -24.2324 6.96055
rfingers 7.12502
rthumb 2.25293 -23.0073
lclavicle 9.54166e-015 -8.34896e-015
lhumerus 39.2528 22.1373 109.21
lradius 6.30556
lwrist -66.8122
lhand -20.9715 5.44251
lfingers 7.12502
lthumb 5.40186 35.3537
rfemur -25.1073 -15.0438 12.6831
rtibia 29.6518
rfoot -11.664 10.8768
rtoes -16.0094
lfemur -23.0253 8.03995 -22.33
ltibia 26.2306
lfoot -5.91164 -14.1869
ltoes 2.09497
19
root 0.113673 19.4186 4.34916 -169.902 -1.55485 176.042
lowerback -4.47607 1.19328 -1.76985
upperback 11.0226 0.82367 -0.298768
thorax 14.581 -0.207041 0.686676
lowerneck -1.02545 -4.08367 0.600108
upperneck 11.319 -6.1367 0.937109
head 3.87368 -3.15324 -0.0326604
rclavicle -6.55989e-015 6.75868e-015
rhumerus -1041.52 -34.0816 975.922
rradius 4.30523
rwrist 42.2244
rhand -23.8308 7.27111
rfingers 7.12502
rthumb 2.64077 -22.6923
lclavicle -6.55989e-015 6.75868e-015
lhumerus 40.6618 19.3005 108.222
lradius 6.91306
lwrist -66.3967
lhand -21.6283 4.77609
lfingers 7.12502
lthumb 4.76767 34.7024
rfemur -24.9342 -14.9875 12.6084
rtibia 29.6116
rfoot -11.6383 10.7944
rtoes -15.92
lfemur -22.8978 8.14305 -22.3556
ltibia 26.1979
lfoot -5.86356 -14.339
ltoes 2.10299
20
root 0.115722 19.4198 4.34974 -170.038 -1.65479 176.009
lowerback -4.60727 1.18341 -1.79223
upperback 11.005 0.829899 -0.341713
thorax 14.6442 -0.200566 0.654391
lowerneck -1.26125 -4.09369 0.497917
upperneck 11.6964 -6.18684 0.9974
head 4.06067 -3.18225 -0.011117
rclavicle 9.54166e-015 1.43125e-014
rhumerus -1039.93 -31.5746 976.472
rradius 4.82808
rwrist 42.0127
rhand -23.4589 7.71075
rfingers 7.12502
rthumb 2.99996 -22.2479
lclavicle 9.54166e-015 1.43125e-014
lhumerus 42.2584 16.4946 107.026
lradius 7.38845
lwrist -65.5391
lhand -22.3267 4.30743
lfingers 7.12502
lthumb 4.09326 34.2478
rfemur -24.7038 -14.8128 12.5031
rtibia 29.5748
rfoot -11.7311 10.5416
rtoes -16.2132
lfemur -22.7401 8.25271 -22.3834
ltibia 26.1706
lfoot -5.7424 -14.5368
ltoes 2.27707
21
root 0.117137 19.4197 4.34626 -170.171 -1.74728 175.993
lowerback -4.76574 1.16951 -1.81358
upperback 10.9572 0.836059 -0.365696
thorax 14.688 -0.192174 0.643657
lowerneck -1.43765 -4.09499 0.351755
upperneck 12.115 -6.2372 1.10451
head 4.25621 -3.21415 0.0341881
rclavicle 0 -3.18055e-015
rhumerus -1038.49 -29.1666 977.309
rradius 5.47744
rwrist 41.8371
rhand -22.9273 8.20723
rfingers 7.12502
rthumb 3.5133 -21.7436
lclavicle 0 -3.18055e-015
lhumerus 43.8539 13.8363 105.619
lradius 7.69801
lwrist -64.3454
lhand -23.1237 3.87657
lfingers 7.12502
lthumb 3.32365 33.8304
rfemur -24.4746 -14.6913 12.4265
rtibia 29.5385
rfoot -11.7936 10.3738
rtoes -16.4339
lfemur -22.5712 8.32243 -22.3822
ltibia 26.1528
lfoot -5.67643 -14.6916
ltoes 2.34205
22
root 0.12015 19.42 4.33982 -170.352 -1.81865 175.979
lowerback -4.92303 1.17447 -1.83537
upperback 10.9311 0.864756 -0.39834
thorax 14.7571 -0.174838 0.626822
lowerneck -1.59746 -4.09252 0.226544
upperneck 12.5075 -6.2839 1.22453
head 4.44068 -3.24278 0.0815137
rclavicle -2.78299e-015 4.37326e-015
rhumerus -1036.94 -26.8308 978.293
rradius 5.92014
rwrist 41.7757
rhand -22.6222 8.85461
rfingers 7.12502
rthumb 3.80792 -21.0911
lclavicle -2.78299e-015 4.37326e-015
lhumerus 45.5197 11.2872 103.936
lradius 8.07417
lwrist -62.7262
lhand -24.3922 3.38003
lfingers 7.12502
lthumb 2.09859 33.3495
rfemur -24.1851 -14.4479 12.3221
rtibia 29.5141
rfoot -11.9062 10.117
rtoes -16.4876
lfemur -22.34 8.42365 -22.3674
ltibia 26.1341
lfoot -5.64244 -14.8598
ltoes 2.29724
23
root 0.121949 19.419 4.32883 -170.537 -1.86794 175.969
lowerback -5.17308 1.17934 -1.86946
upperback 10.928 0.894405 -0.420071
thorax 14.914 -0.161147 0.629444
lowerneck -1.7849 -4.08246 0.0804461
upperneck 12.939 -6.3263 1.35816
head 4.64821 -3.27009 0.135962
rclavicle 1.51076e-014 4.37326e-015
rhumerus -1035.39 -24.5687 979.495
rradius 6.37654
rwrist 41.7049
rhand -22.5712 9.74404
rfingers 7.12502
rthumb 3.85723 -20.2008
lclavicle 1.51076e-014 4.37326e-015
lhumerus 47.2691 8.92613 101.999
lradius 8.50168
lwrist -60.8066
lhand -25.6358 2.75929
lfingers 7.12502
lthumb 0.897473 32.7371
rfemur -23.8739 -14.1833 12.2189
rtibia 29.4851
rfoot -12.024 9.87012
rtoes -16.6064
lfemur -22.0988 8.48469 -22.3438
ltibia 26.13
lfoot -5.62228 -14.9683
ltoes 2.35138
24
root 0.123555 19.4182 4.31295 -170.711 -1.87854 175.944
lowerback -5.50395 1.20018 -1.89224
upperback 10.8997 0.958891 -0.479594
thorax 15.0928 -0.124072 0.591673
lowerneck -1.83949 -4.07872 0.0609771
upperneck 13.3351 -6.38208 1.43519
head 4.81083 -3.30405 0.153389
rclavicle 2.78299e-015 -4.37326e-015
rhumerus -1033.93 -22.4735 980.855
rradius 6.95581
rwrist 41.7493
rhand -22.6296 10.5832
rfingers 7.12502
rthumb 3.80075 -19.3627
lclavicle 2.78299e-015 -4.37326e-015
lhumerus 49.0241 6.69966 99.753
lradius 9.07566
lwrist -59.3537
lhand -26.175 2.2861
lfingers 7.12502
lthumb 0.376753 32.2655
rfemur -23.5864 -13.9846 12.1093
rtibia 29.4643
rfoot -12.1419 9.70041
rtoes -16.7784
lfemur -21.8407 8.48084 -22.3332
ltibia 26.1323
lfoot -5.71641 -14.9477
ltoes 2.14842
25
root 0.125027 19.4161 4.29254 -170.899 -1.85089 175.945
lowerback -5.83415 1.2387 -1.88124
upperback 10.8313 1.05125 -0.540154
thorax 15.2223 -0.0660919 0.540626
lowerneck -1.78527 -4.06348 -0.00326607
upperneck 13.7534 -6.43931 1.57279
head 4.96557 -3.34232 0.201446
rclavicle 1.59028e-015 7.95139e-015
rhumerus -1032.7 -20.5933 982.5
rradius 7.84411
rwrist 41.5674
rhand -22.5024 11.3814
rfingers 7.12502
rthumb 3.92363 -18.5622
lclavicle 1.59028e-015 7.95139e-015
lhumerus 50.7696 4.63471 97.2536
lradius 9.64959
lwrist -57.9902
lhand -26.4845 1.72401
lfingers 7.12502
lthumb 0.0777567 31.7037
rfemur -23.2799 -13.7449 12.0155
rtibia 29.4457
rfoot -12.2325 9.58585
rtoes -16.8155
lfemur -21.5613 8.41146 -22.2765
ltibia 26.1422
lfoot -5.80534 -14.8579
ltoes 2.07186
26
root 0.126601 19.4145 4.26714 -171.133 -1.84562 175.938
lowerback -6.06722 1.25933 -1.87944
upperback 10.6921 1.12815 -0.608889
thorax 15.2023 -0.00977158 0.484011
lowerneck -1.69269 -4.03488 0.00166491
upperneck 14.6608 -6.50622 1.68627
head 4.7337 -3.37948 0.196349
rclavicle 8.94531e-015 2.38542e-015
rhumerus -1031.67 -18.844 984.385
rradius 8.61643
rwrist 41.2545
rhand -22.6333 12.3727
rfingers 7.12502
rthumb 3.79725 -17.5732
lclavicle 8.94531e-015 2.38542e-015
lhumerus 52.4742 2.73308 94.5599
lradius 10.2699
lwrist -55.9071
lhand -26.2728 1.02312
lfingers 7.12502
lthumb 0.282295 31.0027
rfemur -22.9023 -13.6148 11.9197
rtibia 29.4358
rfoot -12.3477 9.51942
rtoes -16.9729
lfemur -21.212 8.34708 -22.2215
ltibia 26.1568
lfoot -5.95357 -14.7845
ltoes 1.78771
27
root 0.129439 19.4123 4.2372 -171.355 -1.8694 175.926
lowerback -6.37102 1.27161 -1.8925
upperback 10.5486 1.19995 -0.678574
thorax 15.2234 0.0429287 0.434942
lowerneck -1.59069 -4.00419 0.0105262
upperneck 15.2223 -6.5715 1.77955
head 4.89324 -3.42575 0.212074
rclavicle 9.14409e-015 -9.93923e-015
rhumerus -1030.62 -17.2057 986.442
rradius 9.3482
rwrist 41.2735
rhand -22.83 13.2251
rfingers 7.12502
rthumb 3.60724 -16.7241
lclavicle 9.14409e-015 -9.93923e-015
lhumerus 54.2366 0.251126 90.6867
lradius 10.8963
lwrist -52.7507
lhand -25.8178 0.795701
lfingers 7.12502
lthumb 0.721765 30.7742
rfemur -22.5083 -13.3645 11.8032
rtibia 29.4283
rfoot -12.5114 9.36416
rtoes -17.0246
lfemur -20.853 8.2141 -22.1583
ltibia 26.1705
lfoot -6.13293 -14.6761
ltoes 1.47633
